<svg width="16" height="16" viewBox="0 0 16 16" fill="none" xmlns="http://www.w3.org/2000/svg">
<path fill-rule="evenodd" clip-rule="evenodd" d="M8.00075 0C5.82806 0 5.55539 0.0095001 4.70205 0.0483338C3.85037 0.0873342 3.26903 0.222169 2.76036 0.420004C2.23419 0.62434 1.78785 0.897676 1.34318 1.34251C0.898176 1.78719 0.62484 2.23352 0.419838 2.75953C0.221502 3.26837 0.0865009 3.84987 0.0481672 4.70122C0.0100001 5.55456 0 5.82739 0 8.00008C0 10.1728 0.00966675 10.4446 0.0483338 11.2979C0.0875009 12.1496 0.222336 12.731 0.420004 13.2396C0.624506 13.7658 0.897843 14.2121 1.34268 14.6568C1.78719 15.1018 2.23352 15.3758 2.75936 15.5802C3.26837 15.778 3.84987 15.9128 4.70138 15.9518C5.55472 15.9907 5.82723 16.0002 7.99975 16.0002C10.1726 16.0002 10.4444 15.9907 11.2978 15.9518C12.1495 15.9128 12.7315 15.778 13.2405 15.5802C13.7665 15.3758 14.2121 15.1018 14.6567 14.6568C15.1017 14.2121 15.375 13.7658 15.58 13.2398C15.7767 12.731 15.9117 12.1495 15.9517 11.2981C15.99 10.4448 16 10.1728 16 8.00008C16 5.82739 15.99 5.55472 15.9517 4.70138C15.9117 3.84971 15.7767 3.26837 15.58 2.7597C15.375 2.23352 15.1017 1.78719 14.6567 1.34251C14.2116 0.897509 13.7666 0.624173 13.24 0.420004C12.73 0.222169 12.1483 0.0873342 11.2966 0.0483338C10.4433 0.0095001 10.1716 0 7.99825 0H8.00075ZM7.73398 1.44165H7.73411L8.00075 1.44173C10.1368 1.44173 10.3899 1.4494 11.2335 1.48773C12.0135 1.5234 12.4368 1.65373 12.7188 1.76323C13.0921 1.90824 13.3583 2.08157 13.6381 2.36157C13.9181 2.64158 14.0915 2.90825 14.2368 3.28158C14.3463 3.56325 14.4768 3.98659 14.5123 4.7666C14.5507 5.60994 14.559 5.86328 14.559 7.9983C14.559 10.1333 14.5507 10.3867 14.5123 11.23C14.4767 12.01 14.3463 12.4333 14.2368 12.715C14.0918 13.0884 13.9181 13.3542 13.6381 13.634C13.3581 13.914 13.0923 14.0874 12.7188 14.2324C12.4371 14.3424 12.0135 14.4724 11.2335 14.508C10.3901 14.5464 10.1368 14.5547 8.00075 14.5547C5.86456 14.5547 5.61139 14.5464 4.76805 14.508C3.98804 14.472 3.5647 14.3417 3.28253 14.2322C2.9092 14.0872 2.64253 13.9139 2.36252 13.6339C2.08252 13.3539 1.90919 13.0879 1.76385 12.7143C1.65435 12.4327 1.52385 12.0093 1.48835 11.2293C1.45001 10.386 1.44235 10.1327 1.44235 7.9963C1.44235 5.85994 1.45001 5.60794 1.48835 4.7646C1.52402 3.98459 1.65435 3.56125 1.76385 3.27925C1.90885 2.90591 2.08252 2.63924 2.36252 2.35924C2.64253 2.07924 2.9092 1.9059 3.28253 1.76057C3.56454 1.65057 3.98804 1.52056 4.76805 1.48473C5.50606 1.4514 5.79206 1.4414 7.28308 1.43973V1.44173C7.42239 1.44151 7.57226 1.44158 7.73398 1.44165ZM11.3111 3.72961C11.3111 3.19944 11.7411 2.76994 12.2711 2.76994V2.76961C12.8011 2.76961 13.2311 3.19961 13.2311 3.72961C13.2311 4.25962 12.8011 4.68962 12.2711 4.68962C11.7411 4.68962 11.3111 4.25962 11.3111 3.72961ZM8.00058 3.89152C5.73179 3.8916 3.89236 5.73109 3.89236 7.99989C3.89236 10.2687 5.73189 12.1074 8.00074 12.1074C10.2696 12.1074 12.1085 10.2687 12.1085 7.99989C12.1085 5.73103 10.2694 3.89152 8.00058 3.89152ZM10.6675 8.00003C10.6675 6.52718 9.47344 5.33333 8.00076 5.33333C6.52791 5.33333 5.33406 6.52718 5.33406 8.00003C5.33406 9.47271 6.52791 10.6667 8.00076 10.6667C9.47344 10.6667 10.6675 9.47271 10.6675 8.00003Z" fill="white"/>
</svg>
