<svg width="89" height="38" viewBox="0 0 89 38" fill="none" xmlns="http://www.w3.org/2000/svg">
<g clip-path="url(#clip0)">
<path d="M64.8299 12.4213C64.7172 12.5741 64.5852 12.7118 64.4371 12.8309C64.427 12.839 64.4038 12.856 64.3907 12.8671C64.0826 13.0991 63.7436 13.2873 63.3835 13.4264C62.1264 13.9395 61.5594 13.0247 61.4073 12.0206C61.3155 11.4141 61.3071 10.798 61.3821 10.1892C61.3821 10.1892 63.1951 9.45817 64.1399 8.93303C65.3366 8.26832 65.3638 8.05244 65.2731 7.70301C65.1875 7.37166 64.6164 6.69892 64.5811 7.07545C64.5187 7.74117 61.0305 9.53549 61.0305 9.53549C61.0305 9.53549 66.1001 4.71583 66.7719 3.87239C67.0439 3.53401 67.1144 3.03095 66.6712 2.56104C66.5017 2.37443 66.3149 2.20431 66.1131 2.05297C66.1048 2.04669 66.0951 2.04253 66.0848 2.04083C66.0745 2.03913 66.064 2.03994 66.0541 2.0432C66.0442 2.04646 66.0352 2.05207 66.0279 2.05954C66.0207 2.06701 66.0154 2.07613 66.0124 2.0861C65.9611 2.24575 65.7868 2.64137 65.2066 3.29102C64.424 4.16659 59.4552 9.2925 59.0704 9.75538C58.86 10.0332 58.6123 10.2809 58.3341 10.4914C57.7298 10.9934 55.9076 12.2224 55.405 12.5247C54.0392 13.345 53.3321 13.7236 53.2696 13.6292C53.2324 13.5709 53.4278 13.342 53.8528 12.9343C54.569 12.2486 57.5273 9.3196 57.897 8.86776C58.2666 8.41592 58.2999 8.12674 58.1568 7.85664C58.0138 7.58654 57.5122 7.14473 57.3672 7.16783C57.2221 7.19092 57.2725 7.39275 56.794 7.81145C56.3156 8.23016 50.6105 12.0678 50.6105 12.0678C50.6105 12.0678 53.7884 8.78844 54.0734 8.28539C54.2608 7.95604 54.2306 7.73615 54.017 7.58252C53.7783 7.41283 52.8154 6.96801 52.6794 7.00617C52.5434 7.04433 52.7912 7.15578 52.1949 8.05043C51.5986 8.94508 48.7884 11.8057 48.7884 11.8057C48.7997 11.6926 48.7802 11.5785 48.732 11.4754C48.659 11.334 48.5486 11.2152 48.4127 11.132C48.4127 11.132 48.2032 11.622 47.2775 12.5658C46.926 12.9243 46.0688 13.6563 45.3214 14.063C44.3957 14.565 43.8166 14.6975 43.2364 14.7136C42.6562 14.7297 42.3782 14.574 42.5031 13.9977C42.6061 13.5984 42.7789 13.2204 43.0138 12.8811L43.2374 12.7807C43.2374 12.7807 46.8696 11.2916 48.1619 10.391C49.2094 9.662 49.4522 9.35073 49.6314 9.0967C49.8792 8.74426 50.0021 8.34061 49.8812 8.0926C49.6113 7.54236 48.9002 7.04332 48.5295 6.97203C48.1588 6.90074 45.8794 7.54838 44.4421 8.67899L44.3071 8.78643C44.2507 8.52637 44.0734 8.27434 43.7602 7.96006C43.3734 7.57248 43.2485 7.48312 43.2162 7.79137C43.181 8.12574 43.1508 8.46211 42.6925 9.17301C41.6661 10.7655 38.2767 13.591 36.1957 14.8522C35.2559 15.4215 35.13 15.3673 35.4513 14.8522C35.8321 14.2447 37.6804 12.2576 38.8961 11.143C40.1119 10.0285 40.3536 9.50938 40.1622 9.1208C40.0162 8.83162 39.4783 8.41793 39.1782 8.27334C38.878 8.12875 38.8327 8.30246 38.8327 8.30246C38.8327 8.30246 38.8417 8.50327 38.5124 9.06557C37.9372 10.0476 33.9142 13.1824 31.8252 14.5961C30.6669 15.3823 29.8107 15.8814 30.2912 14.8743C30.6941 14.0218 34.7674 10.6048 35.0867 9.57565C35.3677 8.66694 34.5831 8.2382 34.3584 8.09461C34.2094 7.9942 33.8206 7.83153 33.7813 7.88576C33.742 7.93998 33.8196 8.02031 33.5536 8.55248C33.0933 9.47424 30.5933 11.8298 29.6425 13.2587C28.5526 14.8974 29.0643 15.5932 29.5236 15.792C30.1622 16.0681 30.8129 15.8231 31.7245 15.2187C35.1743 12.9313 36.8534 11.6039 36.8534 11.6039C36.8534 11.6039 37.2503 11.0517 36.1826 12.3931C35.1149 13.7346 34.7724 14.4616 34.6576 15.0399C34.5428 15.6183 34.9739 15.7026 35.3184 15.6655C36.0698 15.5842 37.911 14.813 40.1925 13.1392C40.6558 12.7988 41.1554 12.4112 41.6389 12.0156C41.3669 12.6281 41.2269 13.2637 41.3035 13.8892C41.5472 15.8794 43.7793 15.2729 44.9538 14.7066C46.1282 14.1403 48.1518 12.8932 48.1518 12.8932C48.1518 12.8932 47.3822 13.6914 47.2936 14.2106C47.205 14.7297 47.5867 14.8421 47.7872 14.8632C48.0725 14.8864 48.3586 14.8282 48.6121 14.6955C48.9573 14.2622 49.3362 13.8566 49.7453 13.4826C50.5642 12.7797 52.4084 11.5075 53.175 10.9834C53.9116 10.4795 54.6753 10.016 55.4624 9.59473C55.2217 9.75137 52.7358 12.2536 52.213 12.9323C51.7678 13.5117 51.6681 13.8802 52.1294 14.3381C52.5072 14.7146 52.8929 14.8893 53.8418 14.317C54.565 13.8782 57.6693 11.6511 57.6693 11.6511C57.6693 11.6511 57.0479 12.4775 56.787 12.9645C56.5261 13.4515 56.3065 14.1885 56.6601 14.5509C57.0136 14.9134 57.7973 14.7056 57.7973 14.7056C57.7973 14.7056 57.8184 14.1985 58.2606 13.4394C58.6014 12.9162 59.0041 12.4357 59.4602 12.0086C59.7352 11.7806 60.0465 11.4955 60.0465 11.4955C60.0465 11.4955 60.0958 13.0589 60.9016 13.9525C61.8333 14.9817 62.9856 14.2768 63.7582 13.82C64.1925 13.5519 64.6033 13.2476 64.986 12.9103C64.986 12.9103 65.0696 13.6513 65.6176 13.9656C66.3428 14.3813 67.3047 13.9957 68.175 13.4856C69.3887 12.7737 70.0948 12.1582 71.2048 11.139C72.6623 10.2263 73.9707 9.33166 73.9707 9.33166C73.9707 9.33166 73.4369 10.149 73.1226 10.5366C72.8084 10.9242 69.8067 13.8872 68.7965 15.3974C67.7862 16.9076 68.1125 17.516 68.3704 17.5994C68.6283 17.6827 69.7675 17.8002 72.6744 16.2117C75.5813 14.6232 81.0467 11.141 84.1279 8.08156C86.8938 5.33535 87.2967 3.54405 87.1225 3.03296C86.9482 2.52188 86.7115 1.62723 86.4083 0.714508C86.1051 -0.198215 85.5662 -0.0606541 85.6932 0.16828C85.8201 0.397213 85.8342 1.55895 85.1271 3.09321C84.8088 3.78403 84.3958 4.96585 81.5755 7.75221C79.1792 10.1189 76.0799 12.5719 74.9458 13.4756C72.8879 15.1233 69.1329 17.5421 68.7401 17.0532C68.3472 16.5642 72.4498 13.4715 75.5209 9.97126C78.592 6.47099 77.613 5.87455 77.0036 5.31326C76.3942 4.75198 75.8422 4.9538 75.949 5.11245C76.0558 5.27109 75.6257 6.95898 74.1742 8.45207C73.6297 8.98594 73.0269 9.45745 72.3773 9.8578C73.0138 8.95411 73.2062 8.35166 72.9574 7.80442C72.756 7.35559 72.4226 7.22808 71.514 7.13469C70.7969 7.0614 70.4393 7.14172 69.8742 7.30439C69.3588 7.47611 68.8722 7.72422 68.4308 8.04039C67.6109 8.6308 67.2342 8.96516 66.9028 9.36278C66.4834 9.85667 66.0939 10.375 65.7364 10.9151C65.688 10.8547 65.6256 10.8069 65.5545 10.776C65.4834 10.745 65.4059 10.7317 65.3285 10.7374C65.3445 11.1441 65.2645 11.549 65.0948 11.9192C65.0318 12.0986 64.9425 12.2678 64.8299 12.4213ZM43.9888 11.4172C44.989 10.4241 47.5938 8.55649 48.6735 8.27836C49.7533 8.00022 49.4662 8.44504 48.4781 9.28848C47.3208 10.2765 45.3164 11.3137 44.7795 11.5688C44.2426 11.8238 43.3472 12.2134 43.3472 12.2134C43.3472 12.2134 43.8065 11.5969 43.9888 11.4172ZM71.78 8.30447C71.4385 9.0495 71.1998 9.42002 70.3446 10.4301C69.5388 11.383 67.6925 13.6332 66.366 13.6352C65.9882 13.6352 67.2121 11.0537 68.1458 10.0124C69.0986 8.9501 69.8662 8.43901 69.8662 8.43901C70.68 7.86969 71.2088 7.68594 71.6118 7.6026C71.7558 7.57148 72.0378 7.74117 71.78 8.30447Z" fill="white"/>
<path d="M49.8065 15.7773C42.8333 15.7542 35.6456 16.7724 29.3129 18.6631C28.5474 18.892 27.2874 19.3459 25.8571 19.8851C25.6142 19.1332 25.2586 18.4223 24.8025 17.7764C23.5655 16.0102 22.2843 14.5804 23.1647 11.8834C23.7126 10.2136 25.4683 8.4966 27.6973 7.25754C28.9866 6.53961 29.7189 6.32474 30.2336 6.20525C35.572 4.96017 29.4953 9.15428 27.6328 10.8512C24.6111 13.6034 24.8065 14.8565 25.2406 15.7211C25.5347 16.3064 26.3133 16.5886 26.815 16.5886C27.1383 16.5886 27.0013 16.5213 26.9499 16.4059C26.8109 16.0916 26.7052 15.4761 27.2017 14.4981C27.7698 13.3785 31.5249 9.33602 32.091 8.65524C32.5885 8.05881 32.9229 7.75155 33.1546 7.10492C33.3561 6.54062 33.3974 5.49836 32.2148 4.99632C31.2731 4.59468 29.327 4.56154 27.0899 5.48632C24.7068 6.47133 22.4928 8.21344 21.7072 11.3964C20.9658 14.3987 22.513 16.0594 23.5253 18.1068C23.9946 19.0516 24.2102 19.7897 24.2354 20.5166C20.7201 21.8762 16.9257 23.4285 16.9257 23.4285C16.9257 23.4285 21.0706 17.1579 20.1761 14.5503C19.2817 11.9427 15.3967 12.764 14.464 13.0662C13.5313 13.3685 7.61467 15.1186 3.58565 21.0548C-0.443366 26.991 -0.521932 33.0618 0.667635 35.2146C1.99117 37.5993 3.44866 37.9176 5.71096 37.9999C9.10843 38.1234 15.2275 35.7046 19.326 33.1612C23.4245 30.6178 24.7289 28.0243 25.5146 25.9026C26.1189 24.2669 26.3718 22.6152 26.1189 21.0227C27.6208 20.4443 29.9062 19.6722 33.351 18.7303C44.2687 15.7432 51.8583 16.3687 54.6565 16.4882C57.6027 16.6137 59.2495 16.8547 61.6317 17.166C63.3808 17.4038 65.1165 17.7305 66.8322 18.145C66.8322 18.145 59.9194 15.8104 49.8065 15.7773ZM23.5927 23.4375C22.384 26.8515 18.9755 30.409 15.6284 32.5296C12.0365 34.8049 9.98172 35.9295 7.4938 36.6575C3.90596 37.7067 2.89165 36.9527 2.00023 35.7538C1.10881 34.5549 0.590077 29.7955 3.71257 24.9095C6.83505 20.0236 11.0776 16.3818 13.9382 14.8987C16.7988 13.4157 19.0269 13.3173 19.183 14.73C19.2837 15.6849 17.9249 20.112 15.9165 22.6624C15.9165 22.6624 14.3995 24.7429 13.4688 25.6857C12.5381 26.6286 9.56471 28.456 8.59271 29.4752C7.83425 30.2704 7.13219 31.0998 7.49581 31.7243C7.82821 32.2927 9.24441 31.7103 10.8459 30.4913C12.4475 29.2723 15.3735 26.1847 15.6193 25.9769C15.8651 25.769 18.5293 24.2478 19.2545 23.9557C19.9797 23.6635 23.1677 22.3491 23.4185 22.2437C23.487 22.2156 23.6743 22.1001 24.0702 21.9033C23.937 22.4224 23.7777 22.9345 23.5927 23.4375Z" fill="white"/>
<path d="M35.3869 7.87714C35.3869 7.87714 34.6697 7.59097 34.6143 7.03671C34.5741 6.62302 34.8511 6.35995 35.2983 5.80268C35.6679 5.3418 35.4524 5.23938 35.8311 5.54965C36.2098 5.85991 36.6762 6.09989 36.2995 6.64612C35.9228 7.19235 35.3859 7.49659 35.3597 7.67733C35.3583 7.74554 35.3772 7.81264 35.4141 7.87011C35.4106 7.87364 35.4063 7.87616 35.4015 7.8774C35.3967 7.87864 35.3917 7.87855 35.3869 7.87714Z" fill="white"/>
<path d="M69.3744 19C69.3744 19 74.2834 20.5444 76.677 23.2976C78.9745 25.9407 78.7558 28.7736 78.7558 28.7736C78.7558 28.7736 81.5628 27.5515 79.4841 24.3481C77.5101 21.3048 69.3744 19 69.3744 19Z" fill="white"/>
</g>
<defs>
<clipPath id="clip0">
<rect width="89" height="38" fill="white"/>
</clipPath>
</defs>
</svg>
